# xmcd
#
# Track frame offsets:
#	150
#	17740
#	29827
#	48922
#	62680
#	86837
#	99467
#	120350
#	142020
#	156010
#
# Disc length: 2364 seconds
#
# Revision: 0
# Processed by: cddbd v1.5PL3 Copyright (c) Steve Scherf et al.
# Submitted via: dBpowerAMP V4.0
#
DISCID=81093a0a
DTITLE=Kirk Talley - Serenade
DYEAR=1995
DGENRE=Gospel
TTITLE0=I Will Praise Him
TTITLE1=He Is My Cornerstone
TTITLE2=Serenaded By Angels
TTITLE3=By Faith
TTITLE4=He Is No Stranger To Me
TTITLE5=We Need The River To Flow
TTITLE6=If He Hung The Moon
TTITLE7=Sometimes The Soldier Cries
TTITLE8=Bad, Bad Problem - Big, Big God
TTITLE9=He Is Here
EXTD=Tony Partigianoni
EXTT0=
EXTT1=
EXTT2=
EXTT3=
EXTT4=
EXTT5=
EXTT6=
EXTT7=
EXTT8=
EXTT9=
PLAYORDER=
